Coordinates
version=1
nRows=107
nColumns=6
inDegrees=yes

Units are S.I. units (second, meters, Newtons, ...)
If the header above contains a line with 'inDegrees', this indicates whether rotational values are in degrees (yes) or radians (no).

endheader
time	foot_tx	hip_flexion_r	knee_angle_r	ankle_angle_r	lumbar
    114.70000000	      0.24357241	     68.56250718	    -71.92930051	      0.26420540	     -9.92134433
    114.71000000	      0.24358800	     68.55111719	    -71.92970873	      0.26766519	     -9.90959219
    114.72000000	      0.24358294	     68.57198138	    -71.93544475	      0.27273139	     -9.85835353
    114.73000000	      0.24359507	     68.56020823	    -71.93424406	      0.27536882	     -9.84664061
    114.74000000	      0.24360162	     68.54909534	    -71.93297111	      0.27823431	     -9.83387115
    114.75000000	      0.24360178	     68.57960301	    -71.93340370	      0.27880467	     -9.77102806
    114.76000000	      0.24360712	     68.56774031	    -71.93039776	      0.28052697	     -9.75962971
    114.77000000	      0.24361378	     68.55676145	    -71.92678478	      0.28165349	     -9.74748302
    114.78000000	      0.24363033	     68.58473216	    -71.92047114	      0.27692702	     -9.68965554
    114.79000000	      0.24363790	     68.57376823	    -71.91692789	      0.27754923	     -9.67899021
    114.80000000	      0.24364184	     68.56393434	    -71.91261308	      0.27745379	     -9.66781448
    114.81000000	      0.24365964	     68.58925923	    -71.90552146	      0.27166544	     -9.61562939
    114.82000000	      0.24366209	     68.57912265	    -71.90156711	      0.27171369	     -9.60589461
    114.83000000	      0.24366722	     68.57064385	    -71.89600573	      0.27021449	     -9.59574382
    114.84000000	      0.24369176	     68.59072036	    -71.88565410	      0.26226893	     -9.55118669
    114.85000000	      0.24369098	     68.58147684	    -71.88088630	      0.26192194	     -9.54247002
    114.86000000	      0.24371898	     68.59559173	    -71.86658975	      0.25208447	     -9.50852591
    114.87000000	      0.24373833	     68.59016784	    -71.85275410	      0.24535833	     -9.49907157
    114.88000000	      0.24376586	     68.58819935	    -71.83556909	      0.23622177	     -9.48840402
    114.89000000	      0.24379554	     68.58887766	    -71.81520432	      0.22562501	     -9.47866521
    114.90000000	      0.24382712	     68.59136257	    -71.79217720	      0.21392671	     -9.47322136
    114.91000000	      0.24386622	     68.59648791	    -71.76604405	      0.20003575	     -9.47336675
    114.92000000	      0.24391158	     68.60654595	    -71.73775390	      0.18413105	     -9.48070290
    114.93000000	      0.24395964	     68.62145575	    -71.70840039	      0.16693126	     -9.49645176
    114.94000000	      0.24400859	     68.64326337	    -71.67985074	      0.14883436	     -9.52242169
    114.95000000	      0.24404860	     68.67178411	    -71.65224488	      0.13109826	     -9.55811857
    114.96000000	      0.24407716	     68.68801368	    -71.62880694	      0.11651934	     -9.63026445
    114.97000000	      0.24410044	     68.74046204	    -71.60664194	      0.09965176	     -9.67862293
    114.98000000	      0.24411173	     68.79941773	    -71.58586858	      0.08357059	     -9.73910214
    114.99000000	      0.24411943	     68.86389440	    -71.56490819	      0.06737177	     -9.81227303
    115.00000000	      0.24410233	     68.88705261	    -71.54731811	      0.05859625	     -9.95442133
    115.01000000	      0.24409264	     68.93535773	    -71.52528626	      0.04561372	    -10.08474942
    115.02000000	      0.24408128	     68.97497957	    -71.49970221	      0.03250952	    -10.24429560
    115.03000000	      0.24406742	     69.00492052	    -71.47170437	      0.02024625	    -10.43444664
    115.04000000	      0.24405491	     69.02438047	    -71.43970257	      0.00784251	    -10.65666260
    115.05000000	      0.24404455	     69.04063487	    -71.40728320	     -0.00342341	    -10.90315640
    115.06000000	      0.24403367	     69.05777143	    -71.37474058	     -0.01354130	    -11.17000568
    115.07000000	      0.24401928	     69.08537414	    -71.34520163	     -0.02146349	    -11.44695064
    115.08000000	      0.24400944	     69.13073479	    -71.31906839	     -0.02809609	    -11.72635394
    115.09000000	      0.24399512	     69.19562676	    -71.29798437	     -0.03197336	    -12.00681498
    115.10000000	      0.24398187	     69.28126906	    -71.28081835	     -0.03403419	    -12.28768255
    115.11000000	      0.24396744	     69.38867619	    -71.26724147	     -0.03423471	    -12.56854509
    115.12000000	      0.24395347	     69.51651678	    -71.25660832	     -0.03263540	    -12.85167866
    115.13000000	      0.24393686	     69.66505975	    -71.24791876	     -0.02947787	    -13.13766756
    115.14000000	      0.24391695	     69.83395630	    -71.24131036	     -0.02431693	    -13.42733269
    115.15000000	      0.24389543	     70.02061615	    -71.23517026	     -0.01784839	    -13.72416479
    115.16000000	      0.24386830	     70.22573675	    -71.23082843	     -0.00906970	    -14.02674534
    115.17000000	      0.24383718	     70.44701043	    -71.22706755	      0.00126693	    -14.33762550
    115.18000000	      0.24380722	     70.68548631	    -71.22338245	      0.01226454	    -14.65560915
    115.19000000	      0.24377644	     70.94100506	    -71.21904928	      0.02346977	    -14.98275371
    115.20000000	      0.24375233	     71.21446367	    -71.21144361	      0.03251458	    -15.32065533
    115.21000000	      0.24373802	     71.50898879	    -71.19998920	      0.03832099	    -15.66796241
    115.22000000	      0.24372597	     71.82712159	    -71.18455536	      0.04101463	    -16.02454475
    115.23000000	      0.24372760	     72.19966152	    -71.16367747	      0.03646674	    -16.35444431
    115.24000000	      0.24370854	     72.54319196	    -71.14373785	      0.03864791	    -16.75880696
    115.25000000	      0.24370328	     72.95847578	    -71.12071410	      0.03537491	    -17.11475858
    115.26000000	      0.24369084	     73.39128360	    -71.09694078	      0.03527400	    -17.48831493
    115.27000000	      0.24367267	     73.84664356	    -71.07340605	      0.03927149	    -17.87285713
    115.28000000	      0.24364630	     74.32773333	    -71.04745537	      0.04632115	    -18.26524939
    115.29000000	      0.24360892	     74.86917685	    -71.01952220	      0.05447120	    -18.62189135
    115.30000000	      0.24356914	     75.44319383	    -70.98667439	      0.06489737	    -18.97314940
    115.31000000	      0.24349705	     76.05456594	    -70.95727330	      0.08473377	    -19.30960797
    115.32000000	      0.24342124	     76.70510081	    -70.92461942	      0.10860790	    -19.62614425
    115.33000000	      0.24333545	     77.39917001	    -70.89144791	      0.13837667	    -19.91510645
    115.34000000	      0.24324415	     78.13718279	    -70.85812937	      0.17428958	    -20.17244301
    115.35000000	      0.24315366	     78.92185109	    -70.82394053	      0.21586381	    -20.39036909
    115.36000000	      0.24306139	     79.75388842	    -70.78917667	      0.26399141	    -20.56371760
    115.37000000	      0.24297221	     80.63649132	    -70.75386835	      0.31865022	    -20.68446715
    115.38000000	      0.24286598	     81.56248223	    -70.72333327	      0.38535004	    -20.75876632
    115.39000000	      0.24275811	     82.53376684	    -70.69274472	      0.46101731	    -20.78307385
    115.40000000	      0.24264303	     83.54923822	    -70.66460597	      0.54846863	    -20.75655392
    115.41000000	      0.24251498	     84.60992447	    -70.63976796	      0.65046947	    -20.67481135
    115.42000000	      0.24239200	     85.71158245	    -70.61464823	      0.76590389	    -20.53657416
    115.43000000	      0.24228175	     86.85485352	    -70.58754859	      0.89587948	    -20.33417593
    115.44000000	      0.24221038	     88.03291622	    -70.55358453	      1.03846545	    -20.06820449
    115.45000000	      0.24220862	     89.23596372	    -70.50850529	      1.19178345	    -19.74329135
    115.46000000	      0.24232051	     90.45218949	    -70.44556807	      1.35161239	    -19.36713590
    115.47000000	      0.24259859	     91.66531717	    -70.35534922	      1.51154851	    -18.95376228
    115.48000000	      0.24308408	     92.86133904	    -70.23535990	      1.66866230	    -18.51444229
    115.49000000	      0.24380973	     94.02169491	    -70.07938495	      1.81781333	    -18.06728564
    115.50000000	      0.24475910	     95.13562082	    -69.89154889	      1.96099115	    -17.62022276
    115.51000000	      0.24580648	     96.17373180	    -69.69533346	      2.11841039	    -17.20453589
    115.52000000	      0.24674081	     97.12152898	    -69.51741813	      2.31619834	    -16.83113589
    115.53000000	      0.24723983	     97.96327255	    -69.40815048	      2.60087619	    -16.50946107
    115.54000000	      0.24714656	     98.68096021	    -69.38907962	      2.99263050	    -16.25130733
    115.55000000	      0.24660672	     99.26449759	    -69.44232451	      3.46992891	    -16.05933665
    115.56000000	      0.24591685	     99.71507636	    -69.52823925	      3.98907814	    -15.92347474
    115.57000000	      0.24530083	    100.03669372	    -69.61582832	      4.51547204	    -15.83192670
    115.58000000	      0.24484860	    100.23923714	    -69.68953176	      5.03292058	    -15.76502546
    115.59000000	      0.24458399	    100.32914524	    -69.73929365	      5.53339901	    -15.70824526
    115.60000000	      0.24447708	    100.31533307	    -69.75980752	      6.01522070	    -15.64636437
    115.61000000	      0.24449467	    100.22349635	    -69.74227946	      6.47443869	    -15.54292870
    115.62000000	      0.24459534	    100.00170020	    -69.68230688	      6.91529103	    -15.46544673
    115.63000000	      0.24475221	     99.70546113	    -69.56727619	      7.32970426	    -15.33942119
    115.64000000	      0.24494264	     99.31848705	    -69.38782764	      7.71571156	    -15.18654043
    115.65000000	      0.24514614	     98.84536725	    -69.13491936	      8.07015918	    -15.00120551
    115.66000000	      0.24534251	     98.28322994	    -68.80082494	      8.39101686	    -14.78742226
    115.67000000	      0.24552656	     97.63564590	    -68.37679395	      8.67384174	    -14.54135423
    115.68000000	      0.24568871	     96.90172332	    -67.85786897	      8.91690459	    -14.26551257
    115.69000000	      0.24582989	     96.07428375	    -67.24324258	      9.12012835	    -13.97071173
    115.70000000	      0.24595895	     95.15512900	    -66.52870762	      9.27985919	    -13.65760228
    115.71000000	      0.24607682	     94.13186022	    -65.71990286	      9.39903382	    -13.34522896
    115.72000000	      0.24619009	     93.00559159	    -64.81902143	      9.47717279	    -13.03668824
    115.73000000	      0.24631022	     91.76369486	    -63.83458852	      9.51734104	    -12.75163358
    115.74000000	      0.24644082	     90.40559855	    -62.77240350	      9.52197870	    -12.49498433
    115.75000000	      0.24658650	     88.92433774	    -61.63896770	      9.49460505	    -12.27705809
    115.76000000	      0.24674911	     87.32301033	    -60.43758214	      9.43743589	    -12.09486289
